<?xml version="1.0" encoding="UTF-8" standalone="no"?>
<!-- Created with Inkscape (http://www.inkscape.org/) -->

<svg
   xmlns:dc="http://purl.org/dc/elements/1.1/"
   xmlns:cc="http://creativecommons.org/ns#"
   xmlns:rdf="http://www.w3.org/1999/02/22-rdf-syntax-ns#"
   xmlns:svg="http://www.w3.org/2000/svg"
   xmlns="http://www.w3.org/2000/svg"
   xmlns:sodipodi="http://sodipodi.sourceforge.net/DTD/sodipodi-0.dtd"
   xmlns:inkscape="http://www.inkscape.org/namespaces/inkscape"
   width="744.09448819"
   height="1052.3622047"
   id="svg2"
   version="1.1"
   inkscape:version="0.48.1 r9760"
   sodipodi:docname="New document 1">
  <defs
     id="defs4">
    <marker
       inkscape:stockid="Arrow1Lend"
       orient="auto"
       refY="0.0"
       refX="0.0"
       id="Arrow1Lend"
       style="overflow:visible;">
      <path
         id="path3834"
         d="M 0.0,0.0 L 5.0,-5.0 L -12.5,0.0 L 5.0,5.0 L 0.0,0.0 z "
         style="fill-rule:evenodd;stroke:#000000;stroke-width:1.0pt;marker-start:none;"
         transform="scale(0.8) rotate(180) translate(12.5,0)" />
    </marker>
    <inkscape:perspective
       sodipodi:type="inkscape:persp3d"
       inkscape:vp_x="-88.893424 : 545.37399 : 1"
       inkscape:vp_y="0 : 1000 : 0"
       inkscape:vp_z="655.20106 : 545.37399 : 1"
       inkscape:persp3d-origin="283.15382 : 369.98029 : 1"
       id="perspective2985" />
    <marker
       inkscape:stockid="Arrow1Lend"
       orient="auto"
       refY="0"
       refX="0"
       id="Arrow1Lend-9"
       style="overflow:visible">
      <path
         inkscape:connector-curvature="0"
         id="path3834-3"
         d="M 0,0 5,-5 -12.5,0 5,5 0,0 z"
         style="fill-rule:evenodd;stroke:#000000;stroke-width:1pt;marker-start:none"
         transform="matrix(-0.8,0,0,-0.8,-10,0)" />
    </marker>
  </defs>
  <sodipodi:namedview
     id="base"
     pagecolor="#ffffff"
     bordercolor="#666666"
     borderopacity="1.0"
     inkscape:pageopacity="0.0"
     inkscape:pageshadow="2"
     inkscape:zoom="0.98994949"
     inkscape:cx="337.8421"
     inkscape:cy="578.41677"
     inkscape:document-units="px"
     inkscape:current-layer="layer1"
     showgrid="false"
     inkscape:object-paths="true"
     inkscape:window-width="1360"
     inkscape:window-height="714"
     inkscape:window-x="1920"
     inkscape:window-y="24"
     inkscape:window-maximized="0" />
  <metadata
     id="metadata7">
    <rdf:RDF>
      <cc:Work
         rdf:about="">
        <dc:format>image/svg+xml</dc:format>
        <dc:type
           rdf:resource="http://purl.org/dc/dcmitype/StillImage" />
        <dc:title></dc:title>
      </cc:Work>
    </rdf:RDF>
  </metadata>
  <g
     inkscape:label="Layer 1"
     inkscape:groupmode="layer"
     id="layer1">
    <g
       id="g4399">
      <g
         inkscape:corner7="-0.29979472 : 0.25610341 : 0.25 : 1"
         inkscape:corner0="0.076923908 : 0.35283118 : 0 : 1"
         inkscape:perspectiveID="#perspective2985"
         id="g2987"
         style="opacity:0.98999999;fill:#d40000;fill-opacity:1;stroke:#ffffff;stroke-width:7.9000001;stroke-miterlimit:4;stroke-opacity:1;stroke-dasharray:none"
         sodipodi:type="inkscape:box3d">
        <path
           d="m 331.68146,373.26728 166.74122,-53.01503 0,101.79671 -166.74122,24.11456 z"
           inkscape:box3dsidetype="11"
           style="fill:#e9e9ff;fill-rule:evenodd;stroke:none"
           id="path2999"
           sodipodi:type="inkscape:box3dside" />
        <path
           d="m 256.57875,342.22495 0,89.81857 75.10271,14.12 0,-72.89624 z"
           inkscape:box3dsidetype="6"
           style="fill:#353564;fill-rule:evenodd;stroke:none"
           id="path2989"
           sodipodi:type="inkscape:box3dside" />
        <path
           d="m 256.57875,342.22495 185.86807,-88.64456 55.97586,66.67186 -166.74122,53.01503 z"
           inkscape:box3dsidetype="5"
           style="fill:#4d4d9f;fill-rule:evenodd;stroke:none"
           id="path2991"
           sodipodi:type="inkscape:box3dside" />
        <path
           d="m 256.57875,432.04352 185.86807,-40.32111 55.97586,30.32655 -166.74122,24.11456 z"
           inkscape:box3dsidetype="13"
           style="fill:#afafde;fill-rule:evenodd;stroke:none"
           id="path2997"
           sodipodi:type="inkscape:box3dside" />
        <path
           d="m 442.44682,253.58039 0,138.14202 55.97586,30.32655 0,-101.79671 z"
           inkscape:box3dsidetype="14"
           style="fill:#d7d7ff;fill-rule:evenodd;stroke:none"
           id="path2995"
           sodipodi:type="inkscape:box3dside" />
        <path
           d="m 256.57875,342.22495 185.86807,-88.64456 0,138.14202 -185.86807,40.32111 z"
           inkscape:box3dsidetype="3"
           style="fill:#8686bf;fill-rule:evenodd;stroke:none"
           id="path2993"
           sodipodi:type="inkscape:box3dside" />
      </g>
      <g
         transform="matrix(0.49078193,-0.14910269,0.14910269,0.49078193,78.748051,230.68005)"
         id="text3001"
         style="font-size:40px;font-style:normal;font-weight:normal;text-align:center;line-height:125%;letter-spacing:0px;word-spacing:0px;text-anchor:middle;fill:#000000;fill-opacity:1;stroke:none;font-family:Sans">
        <path
           inkscape:connector-curvature="0"
           id="path3008"
           d="m 343.64153,373.3074 0,11.60156 -3.61328,0 0,-30.19531 3.61328,0 0,3.32031 c 0.7552,-1.30206 1.70572,-2.2656 2.85156,-2.89062 1.15885,-0.638 2.53905,-0.95701 4.14063,-0.95703 2.65623,2e-5 4.81118,1.05471 6.46484,3.16406 1.66665,2.10939 2.49998,4.88283 2.5,8.32031 -2e-5,3.43751 -0.83335,6.21094 -2.5,8.32031 -1.65366,2.10938 -3.80861,3.16407 -6.46484,3.16407 -1.60158,0 -2.98178,-0.3125 -4.14063,-0.9375 -1.14584,-0.63802 -2.09636,-1.60807 -2.85156,-2.91016 m 12.22656,-7.63672 c -2e-5,-2.64321 -0.54689,-4.71352 -1.64062,-6.21094 -1.08075,-1.51039 -2.57163,-2.2656 -4.47266,-2.26562 -1.90105,2e-5 -3.39845,0.75523 -4.49219,2.26562 -1.08073,1.49742 -1.6211,3.56773 -1.62109,6.21094 -10e-6,2.64324 0.54036,4.72006 1.62109,6.23047 1.09374,1.4974 2.59114,2.2461 4.49219,2.24609 1.90103,10e-6 3.39191,-0.74869 4.47266,-2.24609 1.09373,-1.51041 1.6406,-3.58723 1.64062,-6.23047" />
        <path
           inkscape:connector-curvature="0"
           id="path3010"
           d="m 366.42766,368.19428 0,-13.24219 3.59375,0 0,13.10547 c -10e-6,2.07032 0.40364,3.62631 1.21094,4.66797 0.80728,1.02865 2.01821,1.54297 3.63281,1.54297 1.94009,0 3.47004,-0.61849 4.58984,-1.85547 1.1328,-1.23698 1.6992,-2.92317 1.69922,-5.0586 l 0,-12.40234 3.59375,0 0,21.875 -3.59375,0 0,-3.35938 c -0.87241,1.32813 -1.88804,2.31771 -3.04687,2.96875 -1.14585,0.63803 -2.48049,0.95704 -4.00391,0.95704 -2.51303,0 -4.42058,-0.78125 -5.72266,-2.34375 -1.30208,-1.5625 -1.95313,-3.84765 -1.95312,-6.85547 m 9.04297,-13.76953 0,0" />
        <path
           inkscape:connector-curvature="0"
           id="path3012"
           d="m 413.25679,367.01028 c -2e-5,-2.64321 -0.54689,-4.71352 -1.64062,-6.21094 -1.08075,-1.51039 -2.57163,-2.2656 -4.47266,-2.26562 -1.90105,2e-5 -3.39845,0.75523 -4.49219,2.26562 -1.08073,1.49742 -1.6211,3.56773 -1.62109,6.21094 -1e-5,2.64324 0.54036,4.72006 1.62109,6.23047 1.09374,1.4974 2.59114,2.2461 4.49219,2.24609 1.90103,1e-5 3.39191,-0.74869 4.47266,-2.24609 1.09373,-1.51041 1.6406,-3.58723 1.64062,-6.23047 m -12.22656,-7.63672 c 0.7552,-1.30206 1.70572,-2.2656 2.85156,-2.89062 1.15885,-0.638 2.53905,-0.95701 4.14063,-0.95703 2.65623,2e-5 4.81118,1.05471 6.46484,3.16406 1.66665,2.10939 2.49998,4.88283 2.5,8.32031 -2e-5,3.43751 -0.83335,6.21094 -2.5,8.32031 -1.65366,2.10938 -3.80861,3.16407 -6.46484,3.16407 -1.60158,0 -2.98178,-0.3125 -4.14063,-0.9375 -1.14584,-0.63802 -2.09636,-1.60807 -2.85156,-2.91016 l 0,3.28125 -3.61328,0 0,-30.39063 3.61328,0 0,11.83594" />
        <path
           inkscape:connector-curvature="0"
           id="path3014"
           d="m 445.19136,368.37187 c -2e-5,-2.64321 -0.5469,-4.71352 -1.64063,-6.21094 -1.08074,-1.51039 -2.57163,-2.2656 -4.47265,-2.26562 -1.90106,2e-5 -3.39845,0.75523 -4.49219,2.26562 -1.08074,1.49742 -1.6211,3.56773 -1.6211,6.21094 0,2.64324 0.54036,4.72006 1.6211,6.23047 1.09374,1.4974 2.59113,2.2461 4.49219,2.24609 1.90102,10e-6 3.39191,-0.74869 4.47265,-2.24609 1.09373,-1.51041 1.64061,-3.58723 1.64063,-6.23047 m -12.22657,-7.63672 c 0.7552,-1.30206 1.70572,-2.2656 2.85157,-2.89062 1.15884,-0.638 2.53905,-0.95701 4.14062,-0.95703 2.65624,2e-5 4.81118,1.05471 6.46485,3.16406 1.66664,2.10939 2.49997,4.88283 2.5,8.32031 -3e-5,3.43751 -0.83336,6.21094 -2.5,8.32031 -1.65367,2.10938 -3.80861,3.16407 -6.46485,3.16407 -1.60157,0 -2.98178,-0.3125 -4.14062,-0.9375 -1.14585,-0.63802 -2.09637,-1.60807 -2.85157,-2.91016 l 0,3.28125 -3.61328,0 0,-30.39063 3.61328,0 0,11.83594" />
        <path
           inkscape:connector-curvature="0"
           id="path3016"
           d="m 457.25944,349.40962 3.59375,0 0,30.39063 -3.59375,0 0,-30.39063" />
        <path
           inkscape:connector-curvature="0"
           id="path3018"
           d="m 468.79896,358.02667 3.59375,0 0,21.875 -3.59375,0 0,-21.875 m 0,-8.51563 3.59375,0 0,4.55079 -3.59375,0 0,-4.55079" />
        <path
           inkscape:connector-curvature="0"
           id="path3020"
           d="m 494.53539,358.65295 0,3.35938 c -1.01564,-0.55988 -2.03777,-0.97655 -3.0664,-1.25 -1.01564,-0.28644 -2.04429,-0.42967 -3.08594,-0.42969 -2.33074,2e-5 -4.14063,0.74221 -5.42969,2.22656 -1.28907,1.47137 -1.9336,3.54168 -1.93359,6.21094 -10e-6,2.66928 0.64452,4.7461 1.93359,6.23047 1.28906,1.47136 3.09895,2.20703 5.42969,2.20703 1.04165,0 2.0703,-0.13671 3.08594,-0.41016 1.02863,-0.28645 2.05076,-0.70963 3.0664,-1.26953 l 0,3.32032 c -1.00262,0.46875 -2.04428,0.82031 -3.125,1.05468 -1.06772,0.23438 -2.20704,0.35157 -3.41796,0.35157 -3.29428,0 -5.91147,-1.03516 -7.85157,-3.10547 -1.9401,-2.07031 -2.91016,-4.86328 -2.91015,-8.37891 -10e-6,-3.56769 0.97656,-6.37368 2.92968,-8.41797 1.96614,-2.04425 4.65494,-3.06638 8.06641,-3.0664 1.10676,2e-5 2.18749,0.11721 3.24219,0.35156 1.05467,0.22137 2.0768,0.55992 3.0664,1.01562" />
        <path
           inkscape:connector-curvature="0"
           id="path3022"
           d="m 506.87924,367.8971 c -2.90365,10e-6 -4.91537,0.33204 -6.03515,0.99609 -1.1198,0.66407 -1.6797,1.79688 -1.67969,3.39844 -10e-6,1.27604 0.41666,2.29167 1.25,3.04687 0.84635,0.74219 1.99218,1.11329 3.4375,1.11328 1.99217,1e-5 3.58722,-0.70312 4.78516,-2.10937 1.21092,-1.41927 1.81638,-3.30077 1.8164,-5.64453 l 0,-0.80078 -3.57422,0 m 7.16797,-1.48438 0,12.48047 -3.59375,0 0,-3.32031 c -0.82033,1.32812 -1.84246,2.3112 -3.0664,2.94922 -1.22398,0.625 -2.72137,0.9375 -4.49219,0.9375 -2.23959,0 -4.02344,-0.625 -5.35156,-1.875 -1.31511,-1.26302 -1.97266,-2.94922 -1.97266,-5.0586 0,-2.46093 0.82031,-4.31639 2.46094,-5.5664 1.65364,-1.24999 4.11457,-1.87499 7.38281,-1.875 l 5.03906,0 0,-0.35157 c -2e-5,-1.65363 -0.54689,-2.92967 -1.64062,-3.82812 -1.08075,-0.91144 -2.60418,-1.36717 -4.57032,-1.36719 -1.25001,2e-5 -2.46745,0.14976 -3.65234,0.44922 -1.1849,0.2995 -2.32422,0.74872 -3.41797,1.34766 l 0,-3.32032 c 1.3151,-0.50779 2.59114,-0.88539 3.82813,-1.13281 1.23697,-0.26039 2.44139,-0.3906 3.61328,-0.39062 3.16405,2e-5 5.52733,0.82033 7.08984,2.46093 1.56248,1.64065 2.34373,4.12762 2.34375,7.46094" />
        <path
           inkscape:connector-curvature="0"
           id="path3024"
           d="m 268.02408,415.57407 c -2.90366,10e-6 -4.91538,0.33204 -6.03516,0.99609 -1.1198,0.66407 -1.67969,1.79688 -1.67969,3.39844 0,1.27604 0.41666,2.29167 1.25,3.04687 0.84635,0.74219 1.99218,1.11329 3.4375,1.11328 1.99218,10e-6 3.58723,-0.70312 4.78516,-2.10937 1.21092,-1.41927 1.81639,-3.30077 1.81641,-5.64453 l 0,-0.80078 -3.57422,0 m 7.16797,-1.48438 0,12.48047 -3.59375,0 0,-3.32031 c -0.82033,1.32812 -1.84247,2.3112 -3.06641,2.94922 -1.22397,0.625 -2.72136,0.9375 -4.49219,0.9375 -2.23959,0 -4.02344,-0.625 -5.35156,-1.875 -1.31511,-1.26302 -1.97266,-2.94922 -1.97266,-5.0586 0,-2.46093 0.82031,-4.31639 2.46094,-5.5664 1.65364,-1.24999 4.11458,-1.87499 7.38281,-1.875 l 5.03907,0 0,-0.35157 c -2e-5,-1.65363 -0.54689,-2.92967 -1.64063,-3.82812 -1.08074,-0.91144 -2.60418,-1.36717 -4.57031,-1.36719 -1.25001,2e-5 -2.46746,0.14976 -3.65234,0.44922 -1.18491,0.2995 -2.32423,0.74872 -3.41797,1.34766 l 0,-3.32032 c 1.3151,-0.50779 2.59114,-0.88539 3.82812,-1.13281 1.23697,-0.26039 2.4414,-0.3906 3.61328,-0.39062 3.16405,2e-5 5.52733,0.82033 7.08985,2.46093 1.56248,1.64065 2.34373,4.12762 2.34375,7.46094" />
        <path
           inkscape:connector-curvature="0"
           id="path3026"
           d="m 299.64517,408.89438 c 0.89842,-1.61457 1.97264,-2.80597 3.22266,-3.57422 1.24997,-0.76821 2.72133,-1.15232 4.41406,-1.15234 2.27862,2e-5 4.03643,0.8008 5.27344,2.40234 1.23694,1.58856 1.85543,3.85418 1.85547,6.79687 l 0,13.20313 -3.61328,0 0,-13.08594 c -4e-5,-2.09634 -0.37113,-3.65232 -1.11329,-4.66797 -0.74221,-1.0156 -1.87502,-1.52341 -3.39843,-1.52343 -1.86201,2e-5 -3.33336,0.6185 -4.41407,1.85546 -1.08075,1.237 -1.62111,2.9232 -1.62109,5.0586 l 0,12.36328 -3.61328,0 0,-13.08594 c -2e-5,-2.10936 -0.37111,-3.66535 -1.11328,-4.66797 -0.74221,-1.0156 -1.88804,-1.52341 -3.4375,-1.52343 -1.83595,2e-5 -3.29428,0.62501 -4.375,1.875 -1.08074,1.23699 -1.6211,2.91668 -1.6211,5.03906 l 0,12.36328 -3.61328,0 0,-21.875 3.61328,0 0,3.39844 c 0.82031,-1.34113 1.80338,-2.33071 2.94922,-2.96875 1.14583,-0.638 2.5065,-0.95701 4.08203,-0.95703 1.58853,2e-5 2.93619,0.40366 4.04297,1.21093 1.11978,0.80732 1.9466,1.97919 2.48047,3.51563" />
        <path
           inkscape:connector-curvature="0"
           id="path3028"
           d="m 338.62989,408.89438 c 0.89841,-1.61457 1.97263,-2.80597 3.22265,-3.57422 1.24998,-0.76821 2.72133,-1.15232 4.41407,-1.15234 2.27861,2e-5 4.03642,0.8008 5.27343,2.40234 1.23695,1.58856 1.85544,3.85418 1.85547,6.79687 l 0,13.20313 -3.61328,0 0,-13.08594 c -3e-5,-2.09634 -0.37112,-3.65232 -1.11328,-4.66797 -0.74222,-1.0156 -1.87503,-1.52341 -3.39844,-1.52343 -1.862,2e-5 -3.33336,0.6185 -4.41406,1.85546 -1.08075,1.237 -1.62112,2.9232 -1.62109,5.0586 l 0,12.36328 -3.61329,0 0,-13.08594 c -1e-5,-2.10936 -0.37111,-3.66535 -1.11328,-4.66797 -0.7422,-1.0156 -1.88803,-1.52341 -3.4375,-1.52343 -1.83595,2e-5 -3.29428,0.62501 -4.375,1.875 -1.08073,1.23699 -1.6211,2.91668 -1.62109,5.03906 l 0,12.36328 -3.61328,0 0,-21.875 3.61328,0 0,3.39844 c 0.8203,-1.34113 1.80338,-2.33071 2.94922,-2.96875 1.14582,-0.638 2.5065,-0.95701 4.08203,-0.95703 1.58853,2e-5 2.93618,0.40366 4.04297,1.21093 1.11977,0.80732 1.94659,1.97919 2.48047,3.51563" />
        <path
           inkscape:connector-curvature="0"
           id="path3030"
           d="m 360.59998,404.69696 3.59375,0 0,21.875 -3.59375,0 0,-21.875 m 0,-8.51563 3.59375,0 0,4.55079 -3.59375,0 0,-4.55079" />
        <path
           inkscape:connector-curvature="0"
           id="path3032"
           d="m 390.0048,413.39239 0,13.20313 -3.59375,0 0,-13.08594 c -2e-5,-2.07029 -0.40367,-3.61977 -1.21094,-4.64844 -0.80731,-1.02862 -2.01825,-1.54294 -3.63281,-1.54296 -1.94012,2e-5 -3.47007,0.6185 -4.58985,1.85546 -1.1198,1.237 -1.67969,2.9232 -1.67969,5.0586 l 0,12.36328 -3.61328,0 0,-21.875 3.61328,0 0,3.39844 c 0.85937,-1.31509 1.86849,-2.29816 3.02735,-2.94922 1.17186,-0.65102 2.51952,-0.97654 4.04297,-0.97656 2.513,2e-5 4.41404,0.78127 5.70312,2.34375 1.28904,1.54949 1.93357,3.83465 1.9336,6.85546" />
        <path
           inkscape:connector-curvature="0"
           id="path3034"
           d="m 398.26753,404.93321 3.59375,0 0,21.875 -3.59375,0 0,-21.875 m 0,-8.51563 3.59375,0 0,4.55079 -3.59375,0 0,-4.55079" />
        <path
           inkscape:connector-curvature="0"
           id="path3036"
           d="m 424.32189,405.79101 0,3.39844 c -1.01564,-0.52082 -2.07033,-0.91144 -3.16406,-1.17188 -1.09377,-0.26039 -2.22658,-0.3906 -3.39844,-0.39062 -1.78386,2e-5 -3.12501,0.27346 -4.02344,0.82031 -0.88542,0.54689 -1.32813,1.36721 -1.32812,2.46094 -10e-6,0.83335 0.319,1.4909 0.95703,1.97265 0.63801,0.46877 1.92056,0.91799 3.84765,1.34766 l 1.23047,0.27344 c 2.55207,0.54689 4.36197,1.32162 5.42969,2.32422 1.08071,0.98959 1.62108,2.37631 1.62109,4.16015 -1e-5,2.03126 -0.80731,3.63933 -2.42187,4.82422 -1.60158,1.1849 -3.80861,1.77735 -6.62109,1.77735 -1.17189,0 -2.39584,-0.11719 -3.67188,-0.35157 -1.26302,-0.22135 -2.59766,-0.55989 -4.00391,-1.01562 l 0,-3.71094 c 1.32813,0.69011 2.63672,1.21094 3.92579,1.5625 1.28905,0.33855 2.56509,0.50782 3.82812,0.50781 1.6927,1e-5 2.99478,-0.28645 3.90625,-0.85937 0.91144,-0.58593 1.36717,-1.40625 1.36719,-2.46094 -2e-5,-0.97655 -0.33205,-1.72525 -0.9961,-2.24609 -0.65105,-0.52083 -2.08985,-1.02213 -4.3164,-1.50391 l -1.25,-0.29297 c -2.22657,-0.46874 -3.83464,-1.18488 -4.82422,-2.14844 -0.98959,-0.97654 -1.48438,-2.31118 -1.48438,-4.0039 0,-2.05727 0.72917,-3.64582 2.1875,-4.76563 1.45833,-1.11977 3.52864,-1.67966 6.21094,-1.67968 1.32812,2e-5 2.57811,0.0977 3.75,0.29296 1.17186,0.19534 2.25259,0.48831 3.24219,0.87891" />
        <path
           inkscape:connector-curvature="0"
           id="path3038"
           d="m 437.1687,399.43215 0,6.21094 7.40234,0 0,2.79297 -7.40234,0 0,11.875 c -10e-6,1.78386 0.24088,2.92969 0.72266,3.4375 0.49478,0.50781 1.49087,0.76172 2.98828,0.76172 l 3.6914,0 0,3.00781 -3.6914,0 c -2.77345,0 -4.68751,-0.51432 -5.74219,-1.54297 -1.05469,-1.04166 -1.58204,-2.92968 -1.58203,-5.66406 l 0,-11.875 -2.63672,0 0,-2.79297 2.63672,0 0,-6.21094 3.61328,0" />
        <path
           inkscape:connector-curvature="0"
           id="path3040"
           d="m 462.42684,409.09976 c -0.40366,-0.23435 -0.84637,-0.40362 -1.32813,-0.50781 -0.46876,-0.11717 -0.98959,-0.17576 -1.5625,-0.17578 -2.03126,2e-5 -3.59376,0.66408 -4.6875,1.99219 -1.08073,1.31512 -1.6211,3.20965 -1.62109,5.68359 l 0,11.52344 -3.61328,0 0,-21.875 3.61328,0 0,3.39844 c 0.7552,-1.32811 1.73827,-2.31118 2.94922,-2.94922 1.21092,-0.65102 2.68228,-0.97654 4.41406,-0.97656 0.24738,2e-5 0.52082,0.0195 0.82031,0.0586 0.29947,0.0261 0.6315,0.0716 0.9961,0.13672 l 0.0195,3.6914" />
        <path
           inkscape:connector-curvature="0"
           id="path3042"
           d="m 476.09211,416.60727 c -2.90366,10e-6 -4.91538,0.33204 -6.03516,0.99609 -1.1198,0.66407 -1.67969,1.79688 -1.67969,3.39844 0,1.27604 0.41666,2.29167 1.25,3.04687 0.84635,0.74219 1.99218,1.11329 3.4375,1.11328 1.99218,1e-5 3.58723,-0.70312 4.78516,-2.10937 1.21092,-1.41927 1.81639,-3.30077 1.81641,-5.64453 l 0,-0.80078 -3.57422,0 m 7.16797,-1.48438 0,12.48047 -3.59375,0 0,-3.32031 c -0.82033,1.32812 -1.84247,2.3112 -3.06641,2.94922 -1.22397,0.625 -2.72136,0.9375 -4.49219,0.9375 -2.23959,0 -4.02344,-0.625 -5.35156,-1.875 -1.31511,-1.26302 -1.97266,-2.94922 -1.97266,-5.0586 0,-2.46093 0.82031,-4.31639 2.46094,-5.5664 1.65364,-1.24999 4.11458,-1.87499 7.38281,-1.875 l 5.03907,0 0,-0.35157 c -2e-5,-1.65363 -0.54689,-2.92967 -1.64063,-3.82812 -1.08074,-0.91144 -2.60418,-1.36717 -4.57031,-1.36719 -1.25001,2e-5 -2.46746,0.14976 -3.65234,0.44922 -1.18491,0.2995 -2.32423,0.74872 -3.41797,1.34766 l 0,-3.32032 c 1.3151,-0.50779 2.59114,-0.88539 3.82812,-1.13281 1.23697,-0.26039 2.4414,-0.3906 3.61328,-0.39062 3.16405,2e-5 5.52733,0.82033 7.08985,2.46093 1.56248,1.64065 2.34373,4.12762 2.34375,7.46094" />
        <path
           inkscape:connector-curvature="0"
           id="path3044"
           d="m 487.69164,405.43483 17.07031,0 0,3.28125 -13.51562,15.72266 13.51562,0 0,2.87109 -17.55859,0 0,-3.28125 13.51563,-15.72266 -13.02735,0 0,-2.87109" />
        <path
           inkscape:connector-curvature="0"
           id="path3046"
           d="m 509.40419,405.25439 3.59375,0 0,21.875 -3.59375,0 0,-21.875 m 0,-8.51563 3.59375,0 0,4.55079 -3.59375,0 0,-4.55079" />
        <path
           inkscape:connector-curvature="0"
           id="path3048"
           d="m 527.073,407.37273 c -1.92709,2e-5 -3.45053,0.75523 -4.57031,2.26563 -1.1198,1.49741 -1.6797,3.5547 -1.67969,6.17187 -10e-6,2.6172 0.55338,4.681 1.66016,6.19141 1.11978,1.4974 2.64973,2.24609 4.58984,2.24609 1.91405,0 3.43097,-0.7552 4.55078,-2.26562 1.11977,-1.51041 1.67967,-3.5677 1.67969,-6.17188 -2e-5,-2.59113 -0.55992,-4.64191 -1.67969,-6.15234 -1.11981,-1.52342 -2.63673,-2.28514 -4.55078,-2.28516 m 0,-3.04687 c 3.12498,2e-5 5.57941,1.01564 7.36328,3.04687 1.78383,2.03127 2.67576,4.84377 2.67578,8.4375 -2e-5,3.58074 -0.89195,6.39323 -2.67578,8.4375 -1.78387,2.03125 -4.2383,3.04688 -7.36328,3.04688 -3.13803,0 -5.59897,-1.01563 -7.38281,-3.04688 -1.77084,-2.04427 -2.65626,-4.85676 -2.65625,-8.4375 -10e-6,-3.59373 0.88541,-6.40623 2.65625,-8.4375 1.78384,-2.03123 4.24478,-3.04685 7.38281,-3.04687" />
        <path
           inkscape:connector-curvature="0"
           id="path3050"
           d="m 560.48502,413.36703 0,13.20313 -3.59375,0 0,-13.08594 c -2e-5,-2.07029 -0.40367,-3.61977 -1.21094,-4.64844 -0.80731,-1.02862 -2.01825,-1.54294 -3.63281,-1.54296 -1.94012,2e-5 -3.47007,0.6185 -4.58985,1.85546 -1.1198,1.237 -1.67969,2.9232 -1.67969,5.0586 l 0,12.36328 -3.61328,0 0,-21.875 3.61328,0 0,3.39844 c 0.85937,-1.31509 1.86849,-2.29816 3.02735,-2.94922 1.17186,-0.65102 2.51952,-0.97654 4.04297,-0.97656 2.513,2e-5 4.41404,0.78127 5.70312,2.34375 1.28904,1.54949 1.93357,3.83465 1.9336,6.85546" />
        <path
           inkscape:connector-curvature="0"
           id="path3052"
           d="m 586.40298,414.73422 0,1.75781 -16.52343,0 c 0.15624,2.47397 0.89843,4.36199 2.22656,5.66407 1.34114,1.28906 3.20311,1.93359 5.58594,1.93359 1.38019,0 2.71482,-0.16927 4.0039,-0.50781 1.30207,-0.33854 2.59113,-0.84635 3.86719,-1.52344 l 0,3.39844 c -1.28908,0.54687 -2.6107,0.96354 -3.96484,1.25 -1.35419,0.28646 -2.72788,0.42969 -4.1211,0.42969 -3.48959,0 -6.25651,-1.01563 -8.30078,-3.04688 -2.03125,-2.03124 -3.04688,-4.77864 -3.04687,-8.24219 -10e-6,-3.58071 0.96354,-6.41925 2.89062,-8.51562 1.9401,-2.10935 4.55077,-3.16404 7.83203,-3.16406 2.9427,2e-5 5.26691,0.95054 6.97266,2.85156 1.71873,1.88804 2.5781,4.45965 2.57812,7.71484 m -3.59375,-1.05469 c -0.0261,-1.96613 -0.57944,-3.53513 -1.66015,-4.70703 -1.06773,-1.17185 -2.487,-1.75779 -4.25781,-1.75781 -2.00522,2e-5 -3.61329,0.56643 -4.82422,1.69922 -1.19793,1.13283 -1.88803,2.72788 -2.07032,4.78516 l 12.8125,-0.0195" />
      </g>
      <text
         sodipodi:linespacing="125%"
         id="text3054"
         y="581.85529"
         x="93.80748"
         style="font-size:24.16981506px;font-style:normal;font-weight:normal;line-height:125%;letter-spacing:0px;word-spacing:0px;fill:#000000;fill-opacity:1;stroke:none;font-family:Sans"
         xml:space="preserve"><tspan
           y="581.85529"
           x="93.80748"
           id="tspan3056"
           sodipodi:role="line">cittadino</tspan></text>
      <path
         sodipodi:nodetypes="cc"
         inkscape:connector-curvature="0"
         id="path3058"
         d="M 145.46196,553.34683 C 178.797,409.90516 256.57875,410.91532 256.57875,410.91532"
         style="fill:none;stroke:#000000;stroke-width:1px;stroke-linecap:butt;stroke-linejoin:miter;stroke-opacity:1;marker-end:url(#Arrow1Lend)" />
      <path
         sodipodi:nodetypes="cc"
         inkscape:connector-curvature="0"
         id="path3058-2"
         d="M 319.18214,443.81353 C 285.8471,587.2552 208.06535,586.24504 208.06535,586.24504"
         style="fill:none;stroke:#000000;stroke-width:1px;stroke-linecap:butt;stroke-linejoin:miter;stroke-opacity:1;marker-end:url(#Arrow1Lend)" />
      <text
         sodipodi:linespacing="125%"
         id="text4296"
         y="471.52448"
         x="140.41121"
         style="font-size:40px;font-style:normal;font-weight:normal;line-height:125%;letter-spacing:0px;word-spacing:0px;fill:#000000;fill-opacity:1;stroke:none;font-family:Sans"
         xml:space="preserve"><tspan
           style="font-weight:bold;-inkscape-font-specification:Sans Bold;fill:#008000"
           y="471.52448"
           x="140.41121"
           id="tspan4298"
           sodipodi:role="line">€</tspan></text>
      <text
         sodipodi:linespacing="125%"
         id="text4296-8"
         y="546.69415"
         x="302.97034"
         style="font-size:40px;font-style:normal;font-weight:normal;line-height:125%;letter-spacing:0px;word-spacing:0px;fill:#ff0000;fill-opacity:1;stroke:none;font-family:Sans"
         xml:space="preserve"><tspan
           style="font-weight:bold;fill:#ff0000;-inkscape-font-specification:Sans Bold"
           y="546.69415"
           x="302.97034"
           id="tspan4298-5"
           sodipodi:role="line">€</tspan></text>
    </g>
  </g>
</svg>
